<svg width="16" height="22" viewBox="0 0 16 22" fill="none" xmlns="http://www.w3.org/2000/svg">
<path d="M9 1.07227C9 0.519981 8.55228 0.0722656 8 0.0722656C7.44772 0.0722656 7 0.519981 7 1.07227L9 1.07227ZM7.29289 20.9523C7.68342 21.3428 8.31658 21.3428 8.70711 20.9523L15.0711 14.5883C15.4616 14.1978 15.4616 13.5646 15.0711 13.1741C14.6805 12.7836 14.0474 12.7836 13.6569 13.1741L8 18.831L2.34315 13.1741C1.95262 12.7836 1.31946 12.7836 0.928931 13.1741C0.538407 13.5646 0.538407 14.1978 0.928931 14.5883L7.29289 20.9523ZM7 1.07227L7 20.2452L9 20.2452L9 1.07227L7 1.07227Z" fill="white"/>
</svg>
