<svg width="220" height="43" viewBox="0 0 220 43" fill="none" xmlns="http://www.w3.org/2000/svg">
<g clip-path="url(#clip0_1_298)">
<path d="M127.809 22.275C127.809 15.434 132.578 11.1108 138.533 11.1108C140.125 11.1108 141.404 12.3898 141.404 13.9818C141.404 15.5739 140.125 16.8528 138.533 16.8528C136.015 16.8528 133.99 18.618 133.99 22.2817V31.4142C133.99 33.1328 132.625 34.505 130.9 34.505C129.174 34.505 127.809 33.1395 127.809 31.4142V22.2817V22.275Z" fill="white"/>
<path d="M142.95 22.8016C142.95 16.2669 147.892 11.1045 154.733 11.1045C161.574 11.1045 166.517 16.2669 166.517 22.8016C166.517 29.3362 161.574 34.4987 154.733 34.4987C147.892 34.4987 142.95 29.3362 142.95 22.8016ZM160.249 22.8016C160.249 19.5776 157.951 16.8465 154.733 16.8465C151.516 16.8465 149.171 19.5842 149.171 22.8016C149.171 26.019 151.509 28.7567 154.733 28.7567C157.957 28.7567 160.249 26.019 160.249 22.8016Z" fill="white"/>
<path d="M170.927 14.1953C170.927 12.4767 172.292 11.1045 174.018 11.1045C175.743 11.1045 177.108 12.47 177.108 14.1953V24.347C177.108 27.218 178.874 28.7634 181.078 28.7634C183.283 28.7634 185.049 27.218 185.049 24.347V14.1953C185.049 12.4767 186.414 11.1045 188.139 11.1045C189.865 11.1045 191.23 12.47 191.23 14.1953V24.1272C191.23 30.3487 186.774 34.4987 181.078 34.4987C175.383 34.4987 170.927 30.3487 170.927 24.1272V14.1953Z" fill="white"/>
<path d="M202.701 32.3804V39.7944C202.701 41.5129 201.335 42.8852 199.61 42.8852C197.885 42.8852 196.519 41.5196 196.519 39.7944V14.1953C196.519 12.4767 197.885 11.1045 199.61 11.1045C201.022 11.1045 202.215 12.0304 202.568 13.3094C204.38 11.9438 206.631 11.1045 209.102 11.1045C215.324 11.1045 220 16.2669 220 22.8016C220 29.3362 215.324 34.4987 209.102 34.4987C206.678 34.4987 204.466 33.746 202.701 32.3804ZM213.779 22.8016C213.779 19.4044 211.354 16.8465 208.216 16.8465C205.079 16.8465 202.787 19.3178 202.701 22.5818V22.8016C202.701 26.2454 205.126 28.7567 208.216 28.7567C211.307 28.7567 213.779 26.2388 213.779 22.8016Z" fill="white"/>
<path d="M0 17.4524C0 7.70703 7.34066 0 17.499 0C22.8746 0 26.938 2.23817 28.7698 3.9501C29.8156 4.86935 30.4085 6.18827 30.4085 7.50719C30.4085 8.62628 30.0821 9.61213 29.1628 10.7379L20.7097 20.8829C19.7905 21.9354 18.8113 22.395 17.5656 22.395C15.0743 22.395 13.1759 20.6165 13.1759 18.1785C13.1759 17.1926 13.4357 16.2001 14.1617 15.4141L19.7971 8.89272C19.3375 8.69289 18.2251 8.56632 17.5057 8.56632C12.8495 8.56632 9.24577 12.5164 9.24577 17.459C9.24577 22.4017 12.7829 26.3518 17.5057 26.3518C19.9304 26.3518 21.569 25.3659 22.6814 24.44C23.9937 23.3209 24.913 22.3351 26.6782 22.3351C29.2361 22.3351 31.2011 24.1802 31.2011 26.7514C31.2011 27.6707 30.7415 28.7964 29.8889 29.7823C27.6574 32.4801 23.1411 34.9181 17.499 34.9181C7.40727 34.9114 0 27.271 0 17.4524Z" fill="white"/>
<path d="M34.092 23.6874C36.4833 23.6874 38.4218 21.7489 38.4218 19.3576C38.4218 16.9663 36.4833 15.0278 34.092 15.0278C31.7007 15.0278 29.7622 16.9663 29.7622 19.3576C29.7622 21.7489 31.7007 23.6874 34.092 23.6874Z" fill="#5CFF15"/>
<path d="M41.3727 21.3892C41.3727 15.0344 45.9223 10.7979 51.7375 10.7979C57.5528 10.7979 62.1024 15.0344 62.1024 21.3892V31.5276C62.1024 33.2861 60.7035 34.685 58.945 34.685C57.1864 34.685 55.7876 33.2861 55.7876 31.5276V21.1627C55.7876 18.2318 53.9824 16.6531 51.7309 16.6531C49.4794 16.6531 47.6742 18.2318 47.6742 21.1627V31.5276C47.6742 33.2861 46.2754 34.685 44.5168 34.685C42.7582 34.685 41.3594 33.2861 41.3594 31.5276V21.3892H41.3727Z" fill="white"/>
<path d="M67.5115 5.38886C67.5115 3.6303 68.9103 2.23145 70.6689 2.23145C72.4275 2.23145 73.8263 3.6303 73.8263 5.38886V31.5275C73.8263 33.286 72.4275 34.6849 70.6689 34.6849C68.9103 34.6849 67.5115 33.286 67.5115 31.5275V5.38886ZM75.5782 25.0395C75.0853 24.4533 74.7189 23.6406 74.7189 22.7413C74.7189 22.0685 75.032 21.1626 75.5316 20.5764L82.8789 11.8303C83.5117 11.1108 84.1845 10.7911 85.0438 10.7911C86.7557 10.7911 88.0613 12.0101 88.0613 13.6754C88.0613 14.3549 87.8815 14.981 87.3885 15.5672L81.6199 22.4149L87.5684 29.4891C88.0613 30.0753 88.3344 30.8414 88.3344 31.5142C88.3344 33.3193 86.8024 34.6716 85.1371 34.6716C84.2778 34.6716 83.3319 34.2652 82.7457 33.5458L75.5782 25.0261V25.0395Z" fill="white"/>
<path d="M91.0388 4.93575C91.0388 2.95071 92.6642 1.33203 94.6425 1.33203C96.6209 1.33203 98.2463 2.95737 98.2463 4.93575C98.2463 6.91413 96.6209 8.53947 94.6425 8.53947C92.6642 8.53947 91.0388 6.91413 91.0388 4.93575Z" fill="#5CFF15"/>
<path d="M91.4917 13.9484C91.4917 12.1899 92.8905 10.791 94.6491 10.791C96.4077 10.791 97.8065 12.1899 97.8065 13.9484V31.5274C97.8065 33.2859 96.4077 34.6848 94.6491 34.6848C92.8905 34.6848 91.4917 33.2859 91.4917 31.5274V13.9484Z" fill="white"/>
<path d="M123.752 5.65542C123.259 4.91603 122.44 4.46973 121.547 4.46973C120.488 4.46973 119.529 5.10254 119.116 6.07508L118.696 7.05428C117.171 6.23495 115.412 5.80863 113.56 5.80863C107.885 5.80863 103.762 9.75207 103.762 15.1876C103.762 20.6232 107.758 24.3335 113.487 24.3335H114.346C115.146 24.3335 115.932 24.6599 116.491 25.2327C117.038 25.7923 117.331 26.5184 117.311 27.2844C117.297 27.9705 117.251 30.0621 113.181 30.0621C111.502 30.0621 109.73 29.7291 107.918 29.0763C107.119 28.7898 106.266 28.9031 105.567 29.3893C104.867 29.8756 104.454 30.675 104.454 31.5276C104.454 32.5934 105.114 33.5593 106.093 33.9456C108.445 34.8649 111.016 35.3511 113.527 35.3511C119.522 35.3511 123.252 32.4202 123.252 27.6974C123.252 25.2461 122.26 23.2677 120.368 21.9155C122.287 20.2235 123.372 17.7922 123.372 15.1077C123.372 13.7355 123.119 12.4632 122.626 11.3374L123.985 8.14672C124.332 7.32739 124.252 6.39482 123.759 5.65542H123.752ZM117.617 15.1876C117.617 17.8454 116.098 19.4308 113.56 19.4308C111.022 19.4308 109.504 17.8188 109.504 15.2209C109.504 12.6231 111.022 10.9777 113.56 10.9777C116.098 10.9777 117.617 12.5498 117.617 15.1876Z" fill="white"/>
</g>
<defs>
<clipPath id="clip0_1_298">
<rect width="220" height="42.8849" fill="white"/>
</clipPath>
</defs>
</svg>
